<?xml version="1.0" standalone="no"?>
<!DOCTYPE svg PUBLIC "-//W3C//DTD SVG 20010904//EN"
 "http://www.w3.org/TR/2001/REC-SVG-20010904/DTD/svg10.dtd">
<svg version="1.0" xmlns="http://www.w3.org/2000/svg"
 width="100%" height="100%" viewBox="0 0 572 416"
 preserveAspectRatio="xMidYMid meet">

<g transform="translate(0.000000,416.000000) scale(0.100000,-0.100000)"
fill="#ffffff" stroke="none">
<path d="M3102 4083 c-77 -37 -114 -141 -77 -214 9 -19 49 -67 88 -106 l71
-73 -735 0 c-819 0 -868 -3 -1113 -65 -473 -121 -901 -523 -1060 -997 -60
-177 -70 -253 -70 -513 0 -265 12 -353 76 -540 180 -532 621 -921 1183 -1045
147 -32 202 -24 266 37 69 66 74 160 13 233 -36 42 -66 56 -163 74 -739 140
-1189 877 -974 1596 93 314 324 586 618 730 110 54 148 68 275 102 84 22 94
22 878 25 435 2 792 2 792 -1 0 -2 -31 -34 -70 -71 -103 -100 -122 -168 -70
-253 41 -66 131 -92 204 -57 42 20 444 434 474 487 26 49 29 115 6 161 -24 47
-441 469 -483 489 -45 22 -87 22 -129 1z"/>
<path d="M4012 3669 c-104 -53 -130 -181 -55 -270 36 -42 70 -57 167 -74 403
-70 759 -336 920 -686 217 -472 119 -1047 -239 -1402 -170 -169 -397 -292
-650 -350 -86 -20 -124 -21 -852 -24 -494 -3 -763 -1 -763 6 0 5 19 26 43 46
65 56 97 110 97 163 0 63 -37 124 -93 151 -51 25 -85 26 -133 6 -38 -16 -425
-391 -469 -456 -38 -53 -43 -115 -16 -171 26 -55 445 -475 498 -501 69 -32
161 2 198 73 19 37 19 113 1 148 -8 15 -44 56 -80 91 -36 36 -63 68 -60 73 3
4 341 8 752 7 768 0 849 3 1023 41 183 41 327 103 499 218 254 168 429 367
560 637 121 249 169 493 156 795 -16 394 -154 719 -423 1000 -222 232 -477
385 -773 465 -52 14 -133 28 -180 31 -75 5 -90 3 -128 -17z"/>
<path d="M3091 2694 c-23 -19 -61 -86 -133 -233 -325 -671 -418 -870 -418
-899 0 -21 10 -40 31 -61 41 -42 90 -43 127 -2 15 15 90 158 167 317 76 159
190 394 253 523 62 129 115 246 118 260 11 53 -25 101 -87 116 -19 5 -34 0
-58 -21z"/>
<path d="M2330 2663 c-37 -25 -492 -463 -512 -493 -24 -34 -24 -110 1 -141 10
-13 63 -67 117 -119 55 -53 164 -159 244 -237 80 -77 156 -144 169 -148 65
-20 141 34 141 102 0 38 -10 50 -302 348 l-118 120 201 200 c110 110 207 213
216 229 47 89 -74 196 -157 139z"/>
<path d="M3354 2661 c-26 -12 -62 -57 -70 -88 -4 -13 -1 -36 5 -52 7 -15 101
-116 210 -225 l198 -197 -193 -198 c-189 -196 -224 -239 -224 -281 0 -34 28
-79 61 -96 65 -33 79 -24 360 249 179 174 262 262 270 284 12 38 4 89 -20 118
-15 18 -279 271 -443 424 -69 64 -110 81 -154 62z"/>
</g>
</svg>
